# Blender v2.72 (sub 0) OBJ File: 'crumbled_corner.blend'
# www.blender.org
mtllib crumbled_corner.mtl
o Cube
v 0.500000 -0.500000 -0.500000
v 0.500000 -0.500000 0.500000
v -0.500000 -0.500000 0.500000
v -0.500000 -0.500000 -0.500000
v 0.491884 0.489619 -0.487470
v 0.491883 0.489619 0.512531
v -0.508116 0.489619 0.512530
v 0.000000 -0.500000 -0.500000
v 0.500000 -0.010381 -0.500000
v -0.500000 -0.500000 0.000000
v -0.500000 0.000000 0.500000
v 0.500000 0.500000 0.012530
v 0.005632 0.191222 -0.062463
v -0.008116 0.500000 0.500000
v -0.379240 0.234531 0.146736
v 0.057790 0.224382 0.143032
v -0.368270 0.008816 0.054547
v 0.036925 -0.095581 -0.246292
v -0.261160 -0.500000 -0.500000
v 0.500000 0.239330 -0.500000
v -0.500000 -0.500000 -0.237470
v -0.500000 0.239620 0.500000
v 0.500000 0.500000 0.262530
v -0.157503 0.177171 -0.038928
v -0.258120 0.500000 0.500000
v 0.238840 -0.500000 -0.500000
v 0.500000 -0.260380 -0.500000
v -0.500000 -0.500000 0.262530
v -0.500000 -0.260381 0.500000
v -0.498556 -0.262639 -0.448471
v 0.500000 0.500000 -0.237470
v 0.265940 0.329548 -0.361931
v 0.241880 0.500000 0.500000
v -0.398820 0.350243 0.284535
v 0.012125 0.405695 0.303639
v 0.269097 0.376791 0.067797
v -0.139725 0.239668 0.142705
v -0.355518 -0.043875 -0.204588
v -0.436376 0.003931 0.230224
v -0.459545 -0.253599 0.027092
v -0.362031 0.136232 0.093407
v -0.206869 -0.091809 -0.278808
v 0.241884 -0.010381 -0.487469
v 0.026299 0.018538 -0.200440
v -0.004460 -0.262762 -0.422137
v -0.202478 0.375107 0.301493
v -0.352155 0.050106 -0.129305
v -0.256826 -0.261504 -0.480610
v 0.246261 0.471472 0.271420
v 0.254796 0.435540 -0.210597
v -0.508116 -0.260381 -0.237470
v -0.508116 -0.260381 0.262530
v -0.414034 0.278445 0.251701
v -0.173625 0.045937 -0.179076
v 0.243240 0.214682 -0.431084
v 0.243457 -0.261393 -0.458646
vt 0.273732 0.227538
vt 0.093774 0.247114
vt 0.000097 0.000097
vt 0.410156 0.218750
vt 0.371094 0.378906
vt 0.199219 0.343750
vt 0.289062 0.792969
vt 0.253906 1.000000
vt 0.000000 1.000000
vt 0.703272 0.235718
vt 0.472494 0.219488
vt 0.460938 0.000000
vt 0.733882 0.825404
vt 0.448733 0.605201
vt 0.716001 0.452970
vt 0.343750 0.601562
vt 0.015625 0.625000
vt 0.066406 0.812500
vt 0.800781 0.207031
vt 0.785156 0.511719
vt 0.507812 0.500000
vt 0.882812 0.964844
vt 0.761719 0.867188
vt 0.636719 0.718750
vt 0.485430 0.430307
vt 0.319980 0.417993
vt 0.824219 0.343750
vt 0.859375 0.539062
vt 0.570312 0.527344
vt 0.757812 1.000000
vt 0.507812 1.000000
vt 0.535156 0.753906
vt 0.250000 0.000000
vt 0.105543 0.410647
vt 0.302293 0.588592
vt 0.343750 0.546875
vt 0.273438 0.460938
vt 1.000000 0.250000
vt 0.695312 0.000000
vt 1.000000 0.464844
vt 0.999903 0.714950
vt 0.794478 0.680059
vt 1.000000 1.000000
vt 0.195312 0.453125
vt 0.496094 1.000000
vt 0.999864 0.483528
vt 0.750000 1.000000
vt 0.242188 0.195312
vt 0.000000 0.148438
vt 0.000000 0.000000
vt 0.503906 0.250000
vt 0.503906 0.000000
vt 1.000000 0.000000
vt 1.000000 0.253906
vt 1.000000 0.500000
vt 0.808594 0.742188
vt 1.000000 0.750000
vt 0.093731 0.511768
vt 0.558594 0.406250
vt 0.527344 0.203125
vt 0.999911 0.005169
vt 1.000000 0.222656
vt 0.789062 0.769531
vt 0.164062 0.128906
vt 0.000720 0.008248
vt 0.994250 0.000100
vt 0.002654 0.246317
vt 0.499999 0.000101
vt 0.737421 0.000100
vt 0.999899 0.500000
vt 0.999901 0.730078
vt 0.999828 0.000107
vt 0.999826 0.236694
vt 0.250000 1.000000
vt 0.750000 0.000000
vt 0.808594 0.167969
vt 0.994250 0.983461
vt 0.745648 0.996013
vt 0.999898 0.000100
vt 0.999899 0.238893
vt 0.248882 0.999900
vt 0.000100 0.991834
vt 0.006541 0.743085
vt 0.497269 0.997956
vt 0.004678 0.505014
vt 0.000100 0.999900
vt 0.237521 0.000101
vt 0.999899 0.999900
vt 0.999899 0.738792
vn -0.059500 0.838800 -0.541200
vn -0.167900 0.729100 -0.663400
vn -0.000000 0.081000 -0.996700
vn -0.298500 0.848000 -0.438000
vn -0.544300 0.834300 -0.087700
vn -0.200500 0.605800 -0.769900
vn -0.006200 0.999900 -0.011000
vn -0.914400 0.205600 -0.348800
vn -0.984100 -0.177100 0.008900
vn 0.076200 0.981100 -0.177700
vn -0.779200 0.156700 -0.606800
vn -0.000000 0.311800 -0.950100
vn -0.112300 0.826600 -0.551500
vn 0.060700 0.771100 -0.633800
vn -0.027200 0.763600 -0.645100
vn -0.126100 0.941800 -0.311700
vn -0.991200 0.102400 -0.083600
vn -0.581100 0.813700 0.016200
vn -0.475100 0.727900 -0.494400
vn 0.165600 0.695000 -0.699700
vn -0.115200 0.985400 -0.125200
vn -0.503800 0.760300 -0.410000
vn -0.572500 0.458100 -0.680000
vn -0.226600 0.950600 0.212200
vn -0.669100 0.584700 -0.458800
vn -0.990500 -0.135900 0.022200
vn -0.182100 0.618700 -0.764200
vn -0.321400 0.359600 -0.876000
vn -0.025700 0.946000 -0.323000
vn 1.000000 0.000000 0.000000
vn -0.998800 0.015900 -0.045400
vn -0.982900 -0.033300 0.181300
vn -0.795600 0.584800 -0.158100
vn -0.964500 0.179700 -0.193800
vn -0.999400 -0.000000 0.034200
vn -0.973300 0.000000 -0.229500
vn -0.875200 0.179800 -0.449100
vn -0.945000 0.000000 -0.327200
vn -0.694600 0.415700 -0.587100
vn -0.559100 0.317600 -0.765900
vn 0.026600 0.728200 -0.684900
vn 0.117800 0.563600 -0.817600
vn -0.809300 0.304500 -0.502300
vn -0.262600 0.039800 -0.964100
vn -0.048500 0.000000 -0.998800
vn -0.144100 -0.113800 -0.983000
vn -0.159100 -0.000000 -0.987300
vn 0.000000 -0.000000 -1.000000
vn -0.394600 0.851000 -0.346600
vn 0.000000 0.000000 1.000000
vn 0.000000 -1.000000 0.000000
vn -0.062000 0.836900 -0.543900
vn -0.129800 0.211100 -0.968800
vn 0.000000 0.992300 -0.123800
vn -0.922900 0.339900 -0.180600
vn -0.681400 0.418900 -0.600200
vn -0.785000 0.166600 -0.596700
vn -0.144500 0.171700 -0.974500
vn -0.000000 0.901400 -0.432900
vn -0.084900 0.648600 -0.756400
vn -0.038600 0.752700 -0.657200
vn -0.995700 0.067900 -0.062800
vn 0.098900 0.749400 -0.654700
vn 0.225400 0.074900 -0.971400
vn 0.039300 0.998300 0.042700
vn -0.111700 0.993700 -0.000000
vn -0.298500 0.852200 -0.429700
vn -0.470800 0.882300 0.000000
vn -0.257400 0.965800 -0.031700
vn 0.998800 0.034100 -0.033800
vn 0.999400 0.007800 0.032800
vn -0.999400 -0.033900 0.000000
vn -0.986800 0.162000 0.000000
vn -0.936900 0.308700 0.164100
vn -0.963500 0.265600 0.032900
vn -0.928300 0.103500 -0.357000
vn -0.969100 0.096600 -0.227100
vn -0.944200 -0.014200 -0.329100
vn -0.164500 0.603600 -0.780100
vn -0.048700 0.368500 -0.928400
vn -0.769500 0.434100 -0.468400
vn -0.660500 0.478700 -0.578400
vn -0.273000 0.235300 -0.932800
vn -0.706800 0.588200 -0.392900
vn -0.048200 -0.114200 -0.992300
vn -0.157400 0.171600 -0.972500
vn -0.050600 -0.013100 0.998600
vn 0.052000 -0.048300 0.997500
usemtl Material
s off
f 46/1/1 34/2/1 7/3/1
f 24/4/2 54/5/2 47/6/2
f 48/7/3 19/8/3 4/9/3
f 49/10/4 35/11/4 14/12/4
f 32/13/5 13/14/5 36/15/5
f 47/6/6 54/5/6 42/16/6
f 51/17/7 48/7/7 30/18/7
f 52/19/8 39/20/8 17/21/8
f 34/22/9 15/23/9 41/24/9
f 16/25/10 13/14/10 37/26/10
f 55/27/11 43/28/11 18/29/11
f 26/30/12 8/31/12 45/32/12
f 35/11/13 46/1/13 25/33/13
f 16/25/14 37/26/14 46/1/14
f 37/26/15 15/34/15 34/2/15
f 24/35/16 37/26/16 13/14/16
f 41/24/17 47/36/17 38/37/17
f 16/25/18 36/15/18 13/14/18
f 51/17/19 42/16/19 48/7/19
f 18/29/20 45/32/20 48/7/20
f 45/32/12 8/31/12 19/8/12
f 23/38/21 49/10/21 33/39/21
f 12/40/22 36/15/22 49/10/22
f 36/15/23 16/25/23 35/11/23
f 31/41/24 50/42/24 36/15/24
f 5/43/25 32/13/25 50/42/25
f 50/42/26 32/13/26 36/15/26
f 38/44/27 47/6/27 42/16/27
f 42/16/28 51/17/28 38/44/28
f 37/26/29 24/35/29 15/34/29
f 12/45/30 9/46/30 31/47/30
f 51/48/31 30/49/31 4/50/31
f 40/51/32 51/48/32 21/33/32
f 17/21/33 38/37/33 51/48/33
f 52/19/34 40/51/34 10/52/34
f 3/53/35 29/54/35 52/19/35
f 29/54/36 11/55/36 39/20/36
f 53/56/37 41/24/37 17/21/37
f 11/55/38 22/57/38 53/56/38
f 7/43/39 34/22/39 53/56/39
f 41/58/40 15/34/40 24/35/40
f 44/59/41 54/5/41 24/4/41
f 18/29/42 42/16/42 54/5/42
f 55/27/43 44/59/43 13/60/43
f 5/61/44 20/62/44 55/27/44
f 20/62/45 9/55/45 43/28/45
f 43/28/46 56/63/46 45/32/46
f 9/55/47 27/57/47 56/63/47
f 27/57/48 1/43/48 26/30/48
f 47/6/49 41/64/49 24/4/49
f 3/65/50 2/66/50 29/67/50
f 10/68/51 21/69/51 8/70/51
f 25/33/52 46/1/52 7/3/52
f 30/18/53 48/7/53 4/9/53
f 33/39/54 49/10/54 14/12/54
f 40/51/55 52/19/55 17/21/55
f 53/56/56 34/22/56 41/24/56
f 44/59/57 55/27/57 18/29/57
f 56/63/58 26/30/58 45/32/58
f 14/12/59 35/11/59 25/33/59
f 35/11/60 16/25/60 46/1/60
f 46/1/61 37/26/61 34/2/61
f 17/21/62 41/24/62 38/37/62
f 42/16/63 18/29/63 48/7/63
f 48/7/64 45/32/64 19/8/64
f 6/53/65 23/38/65 33/39/65
f 23/38/66 12/40/66 49/10/66
f 49/10/67 36/15/67 35/11/67
f 12/40/68 31/41/68 36/15/68
f 31/41/69 5/43/69 50/42/69
f 20/71/70 5/43/70 31/47/70
f 9/46/30 20/71/30 31/47/30
f 2/50/30 1/72/30 27/73/30
f 23/74/71 6/9/71 2/50/71
f 21/33/72 51/48/72 4/50/72
f 12/45/30 23/74/30 2/50/30
f 10/52/73 40/51/73 21/33/73
f 2/50/30 9/46/30 12/45/30
f 2/50/30 27/73/30 9/46/30
f 40/51/74 17/21/74 51/48/74
f 28/75/72 52/19/72 10/52/72
f 28/75/72 3/53/72 52/19/72
f 52/19/75 29/54/75 39/20/75
f 39/20/76 53/56/76 17/21/76
f 39/20/77 11/55/77 53/56/77
f 22/57/78 7/43/78 53/56/78
f 13/60/79 44/59/79 24/4/79
f 44/59/80 18/29/80 54/5/80
f 32/76/81 55/27/81 13/60/81
f 32/76/82 5/61/82 55/27/82
f 55/27/83 20/62/83 43/28/83
f 18/29/84 43/28/84 45/32/84
f 43/28/85 9/55/85 56/63/85
f 56/63/86 27/57/86 26/30/86
f 6/77/87 33/78/87 2/66/87
f 4/79/51 19/80/51 21/69/51
f 25/81/88 7/82/88 22/83/88
f 2/66/50 33/78/50 14/84/50
f 29/67/50 2/66/50 11/85/50
f 14/84/50 25/81/50 22/83/50
f 2/66/50 14/84/50 11/85/50
f 10/68/51 2/86/51 28/87/51
f 14/84/50 22/83/50 11/85/50
f 2/86/51 3/3/51 28/87/51
f 1/88/51 2/86/51 26/89/51
f 2/86/51 8/70/51 26/89/51
f 21/69/51 19/80/51 8/70/51
f 8/70/51 2/86/51 10/68/51
